# xmcd
#
# Track frame offsets:
#	150
#	42867
#	60185
#	85468
#	119983
#	171027
#	228443
#	250918
#	266889
#
# Disc length: 4153 seconds
#
# Revision: 0
# Processed by: cddbd v1.5.2PL0 Copyright (c) Steve Scherf et al.
# Submitted via: audiograbber 1.83.01
#
DISCID=7b103709
DTITLE=Ludwig van Beethoven - Symphonies No. 6 and 8 [Beethoven Orchester Bonn - 
DTITLE=Stefan Blunier] [MDG SACD]
DYEAR=2015
DGENRE=Classical
TTITLE0=Symphony No. 8 op. 93 F major - Allegro vivace e con brio
TTITLE1=Symphony No. 8 op. 93 F major - Allegretto scherzando
TTITLE2=Symphony No. 8 op. 93 F major - Tempo di Minuetto
TTITLE3=Symphony No. 8 op. 93 F major - Allegro vivace
TTITLE4=Symphony No. 6 op. 68 F major - Angenehme, heitere Empfindungen, welche
TTITLE4=bei der Ankuft auf dem Lande im Menschen erwachen
TTITLE5=Symphony No. 6 op. 68 F major - Szene am Bach
TTITLE6=Symphony No. 6 op. 68 F major - Lustiges Zusammensein der Landleute
TTITLE7=Symphony No. 6 op. 68 F major - Donner, Sturm
TTITLE8=Symphony No. 6 op. 68 F major - Hirtengesang. Wohltätige, mit Dank an d
TTITLE8=ie Gottheit verbundene Gefühle nach dem Sturm
EXTD=
EXTT0=
EXTT1=
EXTT2=
EXTT3=
EXTT4=
EXTT5=
EXTT6=
EXTT7=
EXTT8=
PLAYORDER=
